<?xml version="1.0" encoding="UTF-8"?>
<svg xmlns="http://www.w3.org/2000/svg" xmlns:xlink="http://www.w3.org/1999/xlink" width="250pt" height="107pt" viewBox="0 0 250 107" version="1.1">
<g id="surface1">
<path style="fill:none;stroke-width:0.3985;stroke-linecap:butt;stroke-linejoin:miter;stroke:rgb(0%,0%,0%);stroke-opacity:1;stroke-miterlimit:10;" d="M 9.922406 0.0015625 L 29.76225 0.0015625 M 69.44975 0.0015625 L 89.2935 0.0015625 M 128.977094 0.0015625 L 148.820844 0.0015625 M 188.504437 0.0015625 L 208.348187 0.0015625 " transform="matrix(1,0,0,-1,0.894,104.9)"/>
<path style="fill:none;stroke-width:0.3985;stroke-linecap:butt;stroke-linejoin:miter;stroke:rgb(0%,0%,0%);stroke-opacity:1;stroke-miterlimit:10;" d="M 19.844281 17.579688 L 59.527875 17.579688 M 79.371625 17.579688 L 119.055219 17.579688 M 138.898969 17.579688 L 178.582562 17.579688 M 198.426312 17.579688 L 238.113812 17.579688 " transform="matrix(1,0,0,-1,0.894,104.9)"/>
<path style="fill:none;stroke-width:0.3985;stroke-linecap:butt;stroke-linejoin:miter;stroke:rgb(0%,0%,0%);stroke-opacity:1;stroke-miterlimit:10;" d="M 9.922406 34.36875 L 29.76225 34.36875 M 49.606 34.36875 L 89.2935 34.36875 M 109.133344 34.36875 L 148.820844 34.36875 M 168.664594 34.36875 L 208.348187 34.36875 M 228.191937 34.36875 L 248.031781 34.36875 " transform="matrix(1,0,0,-1,0.894,104.9)"/>
<path style="fill:none;stroke-width:0.3985;stroke-linecap:butt;stroke-linejoin:miter;stroke:rgb(0%,0%,0%);stroke-opacity:1;stroke-miterlimit:10;" d="M 19.844281 51.552344 L 59.527875 51.552344 M 79.371625 51.552344 L 119.055219 51.552344 M 138.898969 51.552344 L 178.582562 51.552344 M 198.426312 51.552344 L 238.113812 51.552344 " transform="matrix(1,0,0,-1,0.894,104.9)"/>
<path style="fill:none;stroke-width:0.3985;stroke-linecap:butt;stroke-linejoin:miter;stroke:rgb(0%,0%,0%);stroke-opacity:1;stroke-miterlimit:10;" d="M 9.922406 68.735938 L 29.76225 68.735938 M 49.606 68.735938 L 89.2935 68.735938 M 109.133344 68.735938 L 148.820844 68.735938 M 168.664594 68.735938 L 208.348187 68.735938 M 228.191937 68.735938 L 248.031781 68.735938 " transform="matrix(1,0,0,-1,0.894,104.9)"/>
<path style="fill:none;stroke-width:0.3985;stroke-linecap:butt;stroke-linejoin:miter;stroke:rgb(0%,0%,0%);stroke-opacity:1;stroke-miterlimit:10;" d="M 19.844281 85.919531 L 59.527875 85.919531 M 79.371625 85.919531 L 119.055219 85.919531 M 138.898969 85.919531 L 178.582562 85.919531 M 198.426312 85.919531 L 238.113812 85.919531 " transform="matrix(1,0,0,-1,0.894,104.9)"/>
<path style="fill:none;stroke-width:0.3985;stroke-linecap:butt;stroke-linejoin:miter;stroke:rgb(0%,0%,0%);stroke-opacity:1;stroke-miterlimit:10;" d="M 9.922406 103.103125 L 29.76225 103.103125 M 69.44975 103.103125 L 89.2935 103.103125 M 128.977094 103.103125 L 148.820844 103.103125 M 188.504437 103.103125 L 208.348187 103.103125 " transform="matrix(1,0,0,-1,0.894,104.9)"/>
<path style="fill:none;stroke-width:0.3985;stroke-linecap:butt;stroke-linejoin:miter;stroke:rgb(0%,0%,0%);stroke-opacity:1;stroke-miterlimit:10;" d="M 9.922406 0.0015625 L 0.00053125 17.579688 L 9.922406 34.36875 L 0.00053125 51.552344 L 9.922406 68.735938 L 0.00053125 85.919531 L 9.922406 103.103125 " transform="matrix(1,0,0,-1,0.894,104.9)"/>
<path style="fill:none;stroke-width:0.3985;stroke-linecap:butt;stroke-linejoin:miter;stroke:rgb(0%,0%,0%);stroke-opacity:1;stroke-miterlimit:10;" d="M 9.922406 0.0015625 L 19.844281 17.579688 L 9.922406 34.36875 L 19.844281 51.552344 L 9.922406 68.735938 L 19.844281 85.919531 L 9.922406 103.103125 " transform="matrix(1,0,0,-1,0.894,104.9)"/>
<path style="fill:none;stroke-width:0.3985;stroke-linecap:butt;stroke-linejoin:miter;stroke:rgb(0%,0%,0%);stroke-opacity:1;stroke-miterlimit:10;" d="M 29.76225 0.0015625 L 39.684125 17.579688 L 29.76225 34.36875 L 39.684125 51.552344 L 29.76225 68.735938 L 39.684125 85.919531 L 29.76225 103.103125 " transform="matrix(1,0,0,-1,0.894,104.9)"/>
<path style="fill:none;stroke-width:0.3985;stroke-linecap:butt;stroke-linejoin:miter;stroke:rgb(0%,0%,0%);stroke-opacity:1;stroke-miterlimit:10;" d="M 39.684125 17.579688 L 49.606 34.36875 L 39.684125 51.552344 L 49.606 68.735938 L 39.684125 85.919531 " transform="matrix(1,0,0,-1,0.894,104.9)"/>
<path style="fill:none;stroke-width:0.3985;stroke-linecap:butt;stroke-linejoin:miter;stroke:rgb(0%,0%,0%);stroke-opacity:1;stroke-miterlimit:10;" d="M 59.527875 17.579688 L 69.44975 34.36875 L 59.527875 51.552344 L 69.44975 68.735938 L 59.527875 85.919531 " transform="matrix(1,0,0,-1,0.894,104.9)"/>
<path style="fill:none;stroke-width:0.3985;stroke-linecap:butt;stroke-linejoin:miter;stroke:rgb(0%,0%,0%);stroke-opacity:1;stroke-miterlimit:10;" d="M 69.44975 0.0015625 L 59.527875 17.579688 M 59.527875 85.919531 L 69.44975 103.103125 " transform="matrix(1,0,0,-1,0.894,104.9)"/>
<path style="fill:none;stroke-width:0.3985;stroke-linecap:butt;stroke-linejoin:miter;stroke:rgb(0%,0%,0%);stroke-opacity:1;stroke-miterlimit:10;" d="M 69.44975 0.0015625 L 79.371625 17.579688 L 69.44975 34.36875 L 79.371625 51.552344 L 69.44975 68.735938 L 79.371625 85.919531 L 69.44975 103.103125 " transform="matrix(1,0,0,-1,0.894,104.9)"/>
<path style="fill:none;stroke-width:0.3985;stroke-linecap:butt;stroke-linejoin:miter;stroke:rgb(0%,0%,0%);stroke-opacity:1;stroke-miterlimit:10;" d="M 89.2935 0.0015625 L 99.211469 17.579688 L 89.2935 34.36875 L 99.211469 51.552344 L 89.2935 68.735938 L 99.211469 85.919531 L 89.2935 103.103125 " transform="matrix(1,0,0,-1,0.894,104.9)"/>
<path style="fill:none;stroke-width:0.3985;stroke-linecap:butt;stroke-linejoin:miter;stroke:rgb(0%,0%,0%);stroke-opacity:1;stroke-miterlimit:10;" d="M 99.211469 17.579688 L 109.133344 34.36875 L 99.211469 51.552344 L 109.133344 68.735938 L 99.211469 85.919531 " transform="matrix(1,0,0,-1,0.894,104.9)"/>
<path style="fill:none;stroke-width:0.3985;stroke-linecap:butt;stroke-linejoin:miter;stroke:rgb(0%,0%,0%);stroke-opacity:1;stroke-miterlimit:10;" d="M 128.977094 0.0015625 L 119.055219 17.579688 L 128.977094 34.36875 L 119.055219 51.552344 L 128.977094 68.735938 L 119.055219 85.919531 L 128.977094 103.103125 " transform="matrix(1,0,0,-1,0.894,104.9)"/>
<path style="fill:none;stroke-width:0.3985;stroke-linecap:butt;stroke-linejoin:miter;stroke:rgb(0%,0%,0%);stroke-opacity:1;stroke-miterlimit:10;" d="M 128.977094 0.0015625 L 138.898969 17.579688 L 128.977094 34.36875 L 138.898969 51.552344 L 128.977094 68.735938 L 138.898969 85.919531 L 128.977094 103.103125 " transform="matrix(1,0,0,-1,0.894,104.9)"/>
<path style="fill:none;stroke-width:0.3985;stroke-linecap:butt;stroke-linejoin:miter;stroke:rgb(0%,0%,0%);stroke-opacity:1;stroke-miterlimit:10;" d="M 148.820844 0.0015625 L 158.742719 17.579688 L 148.820844 34.36875 L 158.742719 51.552344 L 148.820844 68.735938 L 158.742719 85.919531 L 148.820844 103.103125 " transform="matrix(1,0,0,-1,0.894,104.9)"/>
<path style="fill:none;stroke-width:0.3985;stroke-linecap:butt;stroke-linejoin:miter;stroke:rgb(0%,0%,0%);stroke-opacity:1;stroke-miterlimit:10;" d="M 158.742719 17.579688 L 168.664594 34.36875 L 158.742719 51.552344 L 168.664594 68.735938 L 158.742719 85.919531 " transform="matrix(1,0,0,-1,0.894,104.9)"/>
<path style="fill:none;stroke-width:0.3985;stroke-linecap:butt;stroke-linejoin:miter;stroke:rgb(0%,0%,0%);stroke-opacity:1;stroke-miterlimit:10;" d="M 188.504437 0.0015625 L 178.582562 17.579688 L 188.504437 34.36875 L 178.582562 51.552344 L 188.504437 68.735938 L 178.582562 85.919531 L 188.504437 103.103125 " transform="matrix(1,0,0,-1,0.894,104.9)"/>
<path style="fill:none;stroke-width:0.3985;stroke-linecap:butt;stroke-linejoin:miter;stroke:rgb(0%,0%,0%);stroke-opacity:1;stroke-miterlimit:10;" d="M 188.504437 0.0015625 L 198.426312 17.579688 L 188.504437 34.36875 L 198.426312 51.552344 L 188.504437 68.735938 L 198.426312 85.919531 L 188.504437 103.103125 " transform="matrix(1,0,0,-1,0.894,104.9)"/>
<path style="fill:none;stroke-width:0.3985;stroke-linecap:butt;stroke-linejoin:miter;stroke:rgb(0%,0%,0%);stroke-opacity:1;stroke-miterlimit:10;" d="M 208.348187 0.0015625 L 218.270062 17.579688 L 208.348187 34.36875 L 218.270062 51.552344 L 208.348187 68.735938 L 218.270062 85.919531 L 208.348187 103.103125 " transform="matrix(1,0,0,-1,0.894,104.9)"/>
<path style="fill:none;stroke-width:0.3985;stroke-linecap:butt;stroke-linejoin:miter;stroke:rgb(0%,0%,0%);stroke-opacity:1;stroke-miterlimit:10;" d="M 218.270062 17.579688 L 228.191937 34.36875 L 218.270062 51.552344 L 228.191937 68.735938 L 218.270062 85.919531 " transform="matrix(1,0,0,-1,0.894,104.9)"/>
<path style="fill:none;stroke-width:0.3985;stroke-linecap:butt;stroke-linejoin:miter;stroke:rgb(0%,0%,0%);stroke-opacity:1;stroke-miterlimit:10;" d="M 238.113812 17.579688 L 248.031781 34.36875 L 238.113812 51.552344 L 248.031781 68.735938 L 238.113812 85.919531 " transform="matrix(1,0,0,-1,0.894,104.9)"/>
</g>
</svg>
