<?xml version="1.0" encoding="UTF-8"?>
<svg xmlns="http://www.w3.org/2000/svg" xmlns:xlink="http://www.w3.org/1999/xlink" width="315pt" height="124pt" viewBox="0 0 315 124" version="1.1">
<g id="surface1">
<path style="fill:none;stroke-width:0.3985;stroke-linecap:butt;stroke-linejoin:miter;stroke:rgb(0%,0%,0%);stroke-opacity:1;stroke-miterlimit:10;" d="M 0.00053125 0.00028125 L 28.348188 -21.261438 L 56.691938 0.00028125 L 85.039594 -21.261438 L 113.38725 0.00028125 L 141.734906 -21.261438 L 170.082562 0.00028125 L 198.426312 -21.261438 L 226.773969 0.00028125 L 255.121625 -21.261438 L 283.469281 0.00028125 " transform="matrix(1,0,0,-1,0.894,101.012)"/>
<path style="fill:none;stroke-width:0.3985;stroke-linecap:butt;stroke-linejoin:miter;stroke:rgb(0%,0%,0%);stroke-opacity:1;stroke-miterlimit:10;" d="M 0.00053125 14.172156 L 28.348188 -7.085656 L 56.691938 14.172156 L 85.039594 -7.085656 L 113.38725 14.172156 L 141.734906 -7.085656 L 170.082562 14.172156 L 198.426312 -7.085656 L 226.773969 14.172156 L 255.121625 -7.085656 L 283.469281 14.172156 L 311.813031 -7.085656 " transform="matrix(1,0,0,-1,0.894,101.012)"/>
<path style="fill:none;stroke-width:0.3985;stroke-linecap:butt;stroke-linejoin:miter;stroke:rgb(0%,0%,0%);stroke-opacity:1;stroke-miterlimit:10;" d="M 0.00053125 28.347938 L 28.348188 7.086219 L 56.691938 28.347938 L 85.039594 7.086219 L 113.38725 28.347938 L 141.734906 7.086219 L 170.082562 28.347938 L 198.426312 7.086219 L 226.773969 28.347938 L 255.121625 7.086219 L 283.469281 28.347938 L 311.813031 7.086219 " transform="matrix(1,0,0,-1,0.894,101.012)"/>
<path style="fill:none;stroke-width:0.3985;stroke-linecap:butt;stroke-linejoin:miter;stroke:rgb(0%,0%,0%);stroke-opacity:1;stroke-miterlimit:10;" d="M 0.00053125 42.519813 L 28.348188 21.262 L 56.691938 42.519813 L 85.039594 21.262 L 113.38725 42.519813 L 141.734906 21.262 L 170.082562 42.519813 L 198.426312 21.262 L 226.773969 42.519813 L 255.121625 21.262 L 283.469281 42.519813 L 311.813031 21.262 " transform="matrix(1,0,0,-1,0.894,101.012)"/>
<path style="fill:none;stroke-width:0.3985;stroke-linecap:butt;stroke-linejoin:miter;stroke:rgb(0%,0%,0%);stroke-opacity:1;stroke-miterlimit:10;" d="M 0.00053125 56.691688 L 28.348188 35.433875 L 56.691938 56.691688 L 85.039594 35.433875 L 113.38725 56.691688 L 141.734906 35.433875 L 170.082562 56.691688 L 198.426312 35.433875 L 226.773969 56.691688 L 255.121625 35.433875 L 283.469281 56.691688 L 311.813031 35.433875 " transform="matrix(1,0,0,-1,0.894,101.012)"/>
<path style="fill:none;stroke-width:0.3985;stroke-linecap:butt;stroke-linejoin:miter;stroke:rgb(0%,0%,0%);stroke-opacity:1;stroke-miterlimit:10;" d="M 0.00053125 70.867469 L 28.348188 49.60575 L 56.691938 70.867469 L 85.039594 49.60575 L 113.38725 70.867469 L 141.734906 49.60575 L 170.082562 70.867469 L 198.426312 49.60575 L 226.773969 70.867469 L 255.121625 49.60575 L 283.469281 70.867469 L 311.813031 49.60575 " transform="matrix(1,0,0,-1,0.894,101.012)"/>
<path style="fill:none;stroke-width:0.3985;stroke-linecap:butt;stroke-linejoin:miter;stroke:rgb(0%,0%,0%);stroke-opacity:1;stroke-miterlimit:10;" d="M 0.00053125 85.039344 L 28.348188 63.781531 L 56.691938 85.039344 L 85.039594 63.781531 L 113.38725 85.039344 L 141.734906 63.781531 L 170.082562 85.039344 L 198.426312 63.781531 L 226.773969 85.039344 L 255.121625 63.781531 L 283.469281 85.039344 L 311.813031 63.781531 " transform="matrix(1,0,0,-1,0.894,101.012)"/>
<path style="fill:none;stroke-width:0.3985;stroke-linecap:butt;stroke-linejoin:miter;stroke:rgb(0%,0%,0%);stroke-opacity:1;stroke-miterlimit:10;" d="M 0.00053125 99.215125 L 28.348188 77.953406 L 56.691938 99.215125 L 85.039594 77.953406 L 113.38725 99.215125 L 141.734906 77.953406 L 170.082562 99.215125 L 198.426312 77.953406 L 226.773969 99.215125 L 255.121625 77.953406 L 283.469281 99.215125 " transform="matrix(1,0,0,-1,0.894,101.012)"/>
<path style="fill:none;stroke-width:0.3985;stroke-linecap:butt;stroke-linejoin:miter;stroke:rgb(0%,0%,0%);stroke-opacity:1;stroke-miterlimit:10;" d="M 0.00053125 0.00028125 L 0.00053125 14.172156 M 0.00053125 28.347938 L 0.00053125 42.519813 M 0.00053125 56.691688 L 0.00053125 70.867469 M 0.00053125 85.039344 L 0.00053125 99.215125 " transform="matrix(1,0,0,-1,0.894,101.012)"/>
<path style="fill:none;stroke-width:0.3985;stroke-linecap:butt;stroke-linejoin:miter;stroke:rgb(0%,0%,0%);stroke-opacity:1;stroke-miterlimit:10;" d="M 56.691938 0.00028125 L 56.691938 14.172156 M 56.691938 28.347938 L 56.691938 42.519813 M 56.691938 56.691688 L 56.691938 70.867469 M 56.691938 85.039344 L 56.691938 99.215125 " transform="matrix(1,0,0,-1,0.894,101.012)"/>
<path style="fill:none;stroke-width:0.3985;stroke-linecap:butt;stroke-linejoin:miter;stroke:rgb(0%,0%,0%);stroke-opacity:1;stroke-miterlimit:10;" d="M 113.38725 0.00028125 L 113.38725 14.172156 M 113.38725 28.347938 L 113.38725 42.519813 M 113.38725 56.691688 L 113.38725 70.867469 M 113.38725 85.039344 L 113.38725 99.215125 " transform="matrix(1,0,0,-1,0.894,101.012)"/>
<path style="fill:none;stroke-width:0.3985;stroke-linecap:butt;stroke-linejoin:miter;stroke:rgb(0%,0%,0%);stroke-opacity:1;stroke-miterlimit:10;" d="M 170.082562 0.00028125 L 170.082562 14.172156 M 170.082562 28.347938 L 170.082562 42.519813 M 170.082562 56.691688 L 170.082562 70.867469 M 170.082562 85.039344 L 170.082562 99.215125 " transform="matrix(1,0,0,-1,0.894,101.012)"/>
<path style="fill:none;stroke-width:0.3985;stroke-linecap:butt;stroke-linejoin:miter;stroke:rgb(0%,0%,0%);stroke-opacity:1;stroke-miterlimit:10;" d="M 226.773969 0.00028125 L 226.773969 14.172156 M 226.773969 28.347938 L 226.773969 42.519813 M 226.773969 56.691688 L 226.773969 70.867469 M 226.773969 85.039344 L 226.773969 99.215125 " transform="matrix(1,0,0,-1,0.894,101.012)"/>
<path style="fill:none;stroke-width:0.3985;stroke-linecap:butt;stroke-linejoin:miter;stroke:rgb(0%,0%,0%);stroke-opacity:1;stroke-miterlimit:10;" d="M 283.469281 0.00028125 L 283.469281 14.172156 M 283.469281 28.347938 L 283.469281 42.519813 M 283.469281 56.691688 L 283.469281 70.867469 M 283.469281 85.039344 L 283.469281 99.215125 " transform="matrix(1,0,0,-1,0.894,101.012)"/>
<path style="fill:none;stroke-width:0.3985;stroke-linecap:butt;stroke-linejoin:miter;stroke:rgb(0%,0%,0%);stroke-opacity:1;stroke-miterlimit:10;" d="M 28.348188 -7.085656 L 28.348188 7.086219 M 28.348188 21.262 L 28.348188 35.433875 M 28.348188 49.60575 L 28.348188 63.781531 " transform="matrix(1,0,0,-1,0.894,101.012)"/>
<path style="fill:none;stroke-width:0.3985;stroke-linecap:butt;stroke-linejoin:miter;stroke:rgb(0%,0%,0%);stroke-opacity:1;stroke-miterlimit:10;" d="M 85.039594 -7.085656 L 85.039594 7.086219 M 85.039594 21.262 L 85.039594 35.433875 M 85.039594 49.60575 L 85.039594 63.781531 " transform="matrix(1,0,0,-1,0.894,101.012)"/>
<path style="fill:none;stroke-width:0.3985;stroke-linecap:butt;stroke-linejoin:miter;stroke:rgb(0%,0%,0%);stroke-opacity:1;stroke-miterlimit:10;" d="M 141.734906 -7.085656 L 141.734906 7.086219 M 141.734906 21.262 L 141.734906 35.433875 M 141.734906 49.60575 L 141.734906 63.781531 " transform="matrix(1,0,0,-1,0.894,101.012)"/>
<path style="fill:none;stroke-width:0.3985;stroke-linecap:butt;stroke-linejoin:miter;stroke:rgb(0%,0%,0%);stroke-opacity:1;stroke-miterlimit:10;" d="M 198.426312 -7.085656 L 198.426312 7.086219 M 198.426312 21.262 L 198.426312 35.433875 M 198.426312 49.60575 L 198.426312 63.781531 " transform="matrix(1,0,0,-1,0.894,101.012)"/>
<path style="fill:none;stroke-width:0.3985;stroke-linecap:butt;stroke-linejoin:miter;stroke:rgb(0%,0%,0%);stroke-opacity:1;stroke-miterlimit:10;" d="M 255.121625 -7.085656 L 255.121625 7.086219 M 255.121625 21.262 L 255.121625 35.433875 M 255.121625 49.60575 L 255.121625 63.781531 " transform="matrix(1,0,0,-1,0.894,101.012)"/>
<path style="fill:none;stroke-width:0.3985;stroke-linecap:butt;stroke-linejoin:miter;stroke:rgb(0%,0%,0%);stroke-opacity:1;stroke-miterlimit:10;" d="M 311.813031 -7.085656 L 311.813031 7.086219 M 311.813031 21.262 L 311.813031 35.433875 M 311.813031 49.60575 L 311.813031 63.781531 " transform="matrix(1,0,0,-1,0.894,101.012)"/>
</g>
</svg>
