<?xml version="1.0" encoding="UTF-8"?>
<svg xmlns="http://www.w3.org/2000/svg" xmlns:xlink="http://www.w3.org/1999/xlink" width="149pt" height="130pt" viewBox="0 0 149 130" version="1.1">
<g id="surface1">
<path style="fill:none;stroke-width:0.3985;stroke-linecap:butt;stroke-linejoin:miter;stroke:rgb(0%,0%,0%);stroke-opacity:1;stroke-miterlimit:10;" d="M 0.0008125 -0.0016875 L 99.215656 -0.0016875 M 12.403156 12.400656 L 111.614094 12.400656 M 24.801594 24.803 L 124.016437 24.803 " transform="matrix(1,0,0,-1,2.382,127.303)"/>
<path style="fill-rule:nonzero;fill:rgb(0%,0%,0%);fill-opacity:1;stroke-width:0.3985;stroke-linecap:butt;stroke-linejoin:miter;stroke:rgb(0%,0%,0%);stroke-opacity:1;stroke-miterlimit:10;" d="M 1.489094 -0.0016875 C 1.489094 0.822531 0.821125 1.486594 0.0008125 1.486594 C -0.823406 1.486594 -1.487469 0.822531 -1.487469 -0.0016875 C -1.487469 -0.822 -0.823406 -1.489969 0.0008125 -1.489969 C 0.821125 -1.489969 1.489094 -0.822 1.489094 -0.0016875 Z M 1.489094 -0.0016875 " transform="matrix(1,0,0,-1,2.382,127.303)"/>
<path style="fill-rule:nonzero;fill:rgb(0%,0%,0%);fill-opacity:1;stroke-width:0.3985;stroke-linecap:butt;stroke-linejoin:miter;stroke:rgb(0%,0%,0%);stroke-opacity:1;stroke-miterlimit:10;" d="M 51.094563 -0.0016875 C 51.094563 0.822531 50.4305 1.486594 49.606281 1.486594 C 48.785969 1.486594 48.118 0.822531 48.118 -0.0016875 C 48.118 -0.822 48.785969 -1.489969 49.606281 -1.489969 C 50.4305 -1.489969 51.094563 -0.822 51.094563 -0.0016875 Z M 51.094563 -0.0016875 " transform="matrix(1,0,0,-1,2.382,127.303)"/>
<path style="fill-rule:nonzero;fill:rgb(0%,0%,0%);fill-opacity:1;stroke-width:0.3985;stroke-linecap:butt;stroke-linejoin:miter;stroke:rgb(0%,0%,0%);stroke-opacity:1;stroke-miterlimit:10;" d="M 100.700031 -0.0016875 C 100.700031 0.822531 100.035969 1.486594 99.215656 1.486594 C 98.391437 1.486594 97.727375 0.822531 97.727375 -0.0016875 C 97.727375 -0.822 98.391437 -1.489969 99.215656 -1.489969 C 100.035969 -1.489969 100.700031 -0.822 100.700031 -0.0016875 Z M 100.700031 -0.0016875 " transform="matrix(1,0,0,-1,2.382,127.303)"/>
<path style="fill-rule:nonzero;fill:rgb(0%,0%,0%);fill-opacity:1;stroke-width:0.3985;stroke-linecap:butt;stroke-linejoin:miter;stroke:rgb(0%,0%,0%);stroke-opacity:1;stroke-miterlimit:10;" d="M 13.891438 12.400656 C 13.891438 13.224875 13.223469 13.888937 12.403156 13.888937 C 11.578938 13.888937 10.914875 13.224875 10.914875 12.400656 C 10.914875 11.580344 11.578938 10.912375 12.403156 10.912375 C 13.223469 10.912375 13.891438 11.580344 13.891438 12.400656 Z M 13.891438 12.400656 " transform="matrix(1,0,0,-1,2.382,127.303)"/>
<path style="fill-rule:nonzero;fill:rgb(0%,0%,0%);fill-opacity:1;stroke-width:0.3985;stroke-linecap:butt;stroke-linejoin:miter;stroke:rgb(0%,0%,0%);stroke-opacity:1;stroke-miterlimit:10;" d="M 63.496906 12.400656 C 63.496906 13.224875 62.828938 13.888937 62.008625 13.888937 C 61.188313 13.888937 60.520344 13.224875 60.520344 12.400656 C 60.520344 11.580344 61.188313 10.912375 62.008625 10.912375 C 62.828938 10.912375 63.496906 11.580344 63.496906 12.400656 Z M 63.496906 12.400656 " transform="matrix(1,0,0,-1,2.382,127.303)"/>
<path style="fill-rule:nonzero;fill:rgb(0%,0%,0%);fill-opacity:1;stroke-width:0.3985;stroke-linecap:butt;stroke-linejoin:miter;stroke:rgb(0%,0%,0%);stroke-opacity:1;stroke-miterlimit:10;" d="M 113.102375 12.400656 C 113.102375 13.224875 112.438312 13.888937 111.614094 13.888937 C 110.793781 13.888937 110.125812 13.224875 110.125812 12.400656 C 110.125812 11.580344 110.793781 10.912375 111.614094 10.912375 C 112.438312 10.912375 113.102375 11.580344 113.102375 12.400656 Z M 113.102375 12.400656 " transform="matrix(1,0,0,-1,2.382,127.303)"/>
<path style="fill-rule:nonzero;fill:rgb(0%,0%,0%);fill-opacity:1;stroke-width:0.3985;stroke-linecap:butt;stroke-linejoin:miter;stroke:rgb(0%,0%,0%);stroke-opacity:1;stroke-miterlimit:10;" d="M 26.289875 24.803 C 26.289875 25.627219 25.625813 26.291281 24.801594 26.291281 C 23.981281 26.291281 23.317219 25.627219 23.317219 24.803 C 23.317219 23.982687 23.981281 23.314719 24.801594 23.314719 C 25.625813 23.314719 26.289875 23.982687 26.289875 24.803 Z M 26.289875 24.803 " transform="matrix(1,0,0,-1,2.382,127.303)"/>
<path style="fill-rule:nonzero;fill:rgb(0%,0%,0%);fill-opacity:1;stroke-width:0.3985;stroke-linecap:butt;stroke-linejoin:miter;stroke:rgb(0%,0%,0%);stroke-opacity:1;stroke-miterlimit:10;" d="M 75.89925 24.803 C 75.89925 25.627219 75.231281 26.291281 74.410969 26.291281 C 73.58675 26.291281 72.922687 25.627219 72.922687 24.803 C 72.922687 23.982687 73.58675 23.314719 74.410969 23.314719 C 75.231281 23.314719 75.89925 23.982687 75.89925 24.803 Z M 75.89925 24.803 " transform="matrix(1,0,0,-1,2.382,127.303)"/>
<path style="fill-rule:nonzero;fill:rgb(0%,0%,0%);fill-opacity:1;stroke-width:0.3985;stroke-linecap:butt;stroke-linejoin:miter;stroke:rgb(0%,0%,0%);stroke-opacity:1;stroke-miterlimit:10;" d="M 125.504719 24.803 C 125.504719 25.627219 124.840656 26.291281 124.016437 26.291281 C 123.196125 26.291281 122.528156 25.627219 122.528156 24.803 C 122.528156 23.982687 123.196125 23.314719 124.016437 23.314719 C 124.840656 23.314719 125.504719 23.982687 125.504719 24.803 Z M 125.504719 24.803 " transform="matrix(1,0,0,-1,2.382,127.303)"/>
<path style="fill:none;stroke-width:0.3985;stroke-linecap:butt;stroke-linejoin:miter;stroke:rgb(0%,0%,0%);stroke-opacity:1;stroke-miterlimit:10;" d="M 9.922688 49.607687 L 109.133625 49.607687 M 22.321125 62.010031 L 121.535969 62.010031 M 34.723469 74.408469 L 133.938312 74.408469 " transform="matrix(1,0,0,-1,2.382,127.303)"/>
<path style="fill-rule:nonzero;fill:rgb(0%,0%,0%);fill-opacity:1;stroke-width:0.3985;stroke-linecap:butt;stroke-linejoin:miter;stroke:rgb(0%,0%,0%);stroke-opacity:1;stroke-miterlimit:10;" d="M 11.410969 49.607687 C 11.410969 50.428 10.743 51.095969 9.922688 51.095969 C 9.098469 51.095969 8.434406 50.428 8.434406 49.607687 C 8.434406 48.783469 9.098469 48.119406 9.922688 48.119406 C 10.743 48.119406 11.410969 48.783469 11.410969 49.607687 Z M 11.410969 49.607687 " transform="matrix(1,0,0,-1,2.382,127.303)"/>
<path style="fill-rule:nonzero;fill:rgb(0%,0%,0%);fill-opacity:1;stroke-width:0.3985;stroke-linecap:butt;stroke-linejoin:miter;stroke:rgb(0%,0%,0%);stroke-opacity:1;stroke-miterlimit:10;" d="M 61.016438 49.607687 C 61.016438 50.428 60.348469 51.095969 59.528156 51.095969 C 58.707844 51.095969 58.039875 50.428 58.039875 49.607687 C 58.039875 48.783469 58.707844 48.119406 59.528156 48.119406 C 60.348469 48.119406 61.016438 48.783469 61.016438 49.607687 Z M 61.016438 49.607687 " transform="matrix(1,0,0,-1,2.382,127.303)"/>
<path style="fill-rule:nonzero;fill:rgb(0%,0%,0%);fill-opacity:1;stroke-width:0.3985;stroke-linecap:butt;stroke-linejoin:miter;stroke:rgb(0%,0%,0%);stroke-opacity:1;stroke-miterlimit:10;" d="M 110.621906 49.607687 C 110.621906 50.428 109.957844 51.095969 109.133625 51.095969 C 108.313312 51.095969 107.645344 50.428 107.645344 49.607687 C 107.645344 48.783469 108.313312 48.119406 109.133625 48.119406 C 109.957844 48.119406 110.621906 48.783469 110.621906 49.607687 Z M 110.621906 49.607687 " transform="matrix(1,0,0,-1,2.382,127.303)"/>
<path style="fill-rule:nonzero;fill:rgb(0%,0%,0%);fill-opacity:1;stroke-width:0.3985;stroke-linecap:butt;stroke-linejoin:miter;stroke:rgb(0%,0%,0%);stroke-opacity:1;stroke-miterlimit:10;" d="M 23.809406 62.010031 C 23.809406 62.830344 23.145344 63.498312 22.321125 63.498312 C 21.500813 63.498312 20.83675 62.830344 20.83675 62.010031 C 20.83675 61.185812 21.500813 60.52175 22.321125 60.52175 C 23.145344 60.52175 23.809406 61.185812 23.809406 62.010031 Z M 23.809406 62.010031 " transform="matrix(1,0,0,-1,2.382,127.303)"/>
<path style="fill-rule:nonzero;fill:rgb(0%,0%,0%);fill-opacity:1;stroke-width:0.3985;stroke-linecap:butt;stroke-linejoin:miter;stroke:rgb(0%,0%,0%);stroke-opacity:1;stroke-miterlimit:10;" d="M 73.418781 62.010031 C 73.418781 62.830344 72.750812 63.498312 71.9305 63.498312 C 71.106281 63.498312 70.442219 62.830344 70.442219 62.010031 C 70.442219 61.185812 71.106281 60.52175 71.9305 60.52175 C 72.750812 60.52175 73.418781 61.185812 73.418781 62.010031 Z M 73.418781 62.010031 " transform="matrix(1,0,0,-1,2.382,127.303)"/>
<path style="fill-rule:nonzero;fill:rgb(0%,0%,0%);fill-opacity:1;stroke-width:0.3985;stroke-linecap:butt;stroke-linejoin:miter;stroke:rgb(0%,0%,0%);stroke-opacity:1;stroke-miterlimit:10;" d="M 123.02425 62.010031 C 123.02425 62.830344 122.360187 63.498312 121.535969 63.498312 C 120.715656 63.498312 120.047687 62.830344 120.047687 62.010031 C 120.047687 61.185812 120.715656 60.52175 121.535969 60.52175 C 122.360187 60.52175 123.02425 61.185812 123.02425 62.010031 Z M 123.02425 62.010031 " transform="matrix(1,0,0,-1,2.382,127.303)"/>
<path style="fill-rule:nonzero;fill:rgb(0%,0%,0%);fill-opacity:1;stroke-width:0.3985;stroke-linecap:butt;stroke-linejoin:miter;stroke:rgb(0%,0%,0%);stroke-opacity:1;stroke-miterlimit:10;" d="M 36.21175 74.408469 C 36.21175 75.232687 35.547688 75.89675 34.723469 75.89675 C 33.903156 75.89675 33.235188 75.232687 33.235188 74.408469 C 33.235188 73.588156 33.903156 72.924094 34.723469 72.924094 C 35.547688 72.924094 36.21175 73.588156 36.21175 74.408469 Z M 36.21175 74.408469 " transform="matrix(1,0,0,-1,2.382,127.303)"/>
<path style="fill-rule:nonzero;fill:rgb(0%,0%,0%);fill-opacity:1;stroke-width:0.3985;stroke-linecap:butt;stroke-linejoin:miter;stroke:rgb(0%,0%,0%);stroke-opacity:1;stroke-miterlimit:10;" d="M 85.821125 74.408469 C 85.821125 75.232687 85.153156 75.89675 84.332844 75.89675 C 83.508625 75.89675 82.844562 75.232687 82.844562 74.408469 C 82.844562 73.588156 83.508625 72.924094 84.332844 72.924094 C 85.153156 72.924094 85.821125 73.588156 85.821125 74.408469 Z M 85.821125 74.408469 " transform="matrix(1,0,0,-1,2.382,127.303)"/>
<path style="fill-rule:nonzero;fill:rgb(0%,0%,0%);fill-opacity:1;stroke-width:0.3985;stroke-linecap:butt;stroke-linejoin:miter;stroke:rgb(0%,0%,0%);stroke-opacity:1;stroke-miterlimit:10;" d="M 135.426594 74.408469 C 135.426594 75.232687 134.758625 75.89675 133.938312 75.89675 C 133.118 75.89675 132.450031 75.232687 132.450031 74.408469 C 132.450031 73.588156 133.118 72.924094 133.938312 72.924094 C 134.758625 72.924094 135.426594 73.588156 135.426594 74.408469 Z M 135.426594 74.408469 " transform="matrix(1,0,0,-1,2.382,127.303)"/>
<path style="fill:none;stroke-width:0.3985;stroke-linecap:butt;stroke-linejoin:miter;stroke:rgb(0%,0%,0%);stroke-opacity:1;stroke-miterlimit:10;" d="M 19.840656 99.213156 L 119.0555 99.213156 M 32.243 111.6155 L 131.457844 111.6155 M 44.645344 124.017844 L 143.860187 124.017844 " transform="matrix(1,0,0,-1,2.382,127.303)"/>
<path style="fill-rule:nonzero;fill:rgb(0%,0%,0%);fill-opacity:1;stroke-width:0.3985;stroke-linecap:butt;stroke-linejoin:miter;stroke:rgb(0%,0%,0%);stroke-opacity:1;stroke-miterlimit:10;" d="M 21.328938 99.213156 C 21.328938 100.037375 20.664875 100.701438 19.840656 100.701438 C 19.020344 100.701438 18.352375 100.037375 18.352375 99.213156 C 18.352375 98.392844 19.020344 97.724875 19.840656 97.724875 C 20.664875 97.724875 21.328938 98.392844 21.328938 99.213156 Z M 21.328938 99.213156 " transform="matrix(1,0,0,-1,2.382,127.303)"/>
<path style="fill-rule:nonzero;fill:rgb(0%,0%,0%);fill-opacity:1;stroke-width:0.3985;stroke-linecap:butt;stroke-linejoin:miter;stroke:rgb(0%,0%,0%);stroke-opacity:1;stroke-miterlimit:10;" d="M 70.938312 99.213156 C 70.938312 100.037375 70.270344 100.701438 69.450031 100.701438 C 68.625812 100.701438 67.96175 100.037375 67.96175 99.213156 C 67.96175 98.392844 68.625812 97.724875 69.450031 97.724875 C 70.270344 97.724875 70.938312 98.392844 70.938312 99.213156 Z M 70.938312 99.213156 " transform="matrix(1,0,0,-1,2.382,127.303)"/>
<path style="fill-rule:nonzero;fill:rgb(0%,0%,0%);fill-opacity:1;stroke-width:0.3985;stroke-linecap:butt;stroke-linejoin:miter;stroke:rgb(0%,0%,0%);stroke-opacity:1;stroke-miterlimit:10;" d="M 120.543781 99.213156 C 120.543781 100.037375 119.879719 100.701438 119.0555 100.701438 C 118.235187 100.701438 117.567219 100.037375 117.567219 99.213156 C 117.567219 98.392844 118.235187 97.724875 119.0555 97.724875 C 119.879719 97.724875 120.543781 98.392844 120.543781 99.213156 Z M 120.543781 99.213156 " transform="matrix(1,0,0,-1,2.382,127.303)"/>
<path style="fill-rule:nonzero;fill:rgb(0%,0%,0%);fill-opacity:1;stroke-width:0.3985;stroke-linecap:butt;stroke-linejoin:miter;stroke:rgb(0%,0%,0%);stroke-opacity:1;stroke-miterlimit:10;" d="M 33.731281 111.6155 C 33.731281 112.435813 33.067219 113.103781 32.243 113.103781 C 31.422688 113.103781 30.754719 112.435813 30.754719 111.6155 C 30.754719 110.795188 31.422688 110.127219 32.243 110.127219 C 33.067219 110.127219 33.731281 110.795188 33.731281 111.6155 Z M 33.731281 111.6155 " transform="matrix(1,0,0,-1,2.382,127.303)"/>
<path style="fill-rule:nonzero;fill:rgb(0%,0%,0%);fill-opacity:1;stroke-width:0.3985;stroke-linecap:butt;stroke-linejoin:miter;stroke:rgb(0%,0%,0%);stroke-opacity:1;stroke-miterlimit:10;" d="M 83.340656 111.6155 C 83.340656 112.435813 82.672687 113.103781 81.852375 113.103781 C 81.028156 113.103781 80.364094 112.435813 80.364094 111.6155 C 80.364094 110.795188 81.028156 110.127219 81.852375 110.127219 C 82.672687 110.127219 83.340656 110.795188 83.340656 111.6155 Z M 83.340656 111.6155 " transform="matrix(1,0,0,-1,2.382,127.303)"/>
<path style="fill-rule:nonzero;fill:rgb(0%,0%,0%);fill-opacity:1;stroke-width:0.3985;stroke-linecap:butt;stroke-linejoin:miter;stroke:rgb(0%,0%,0%);stroke-opacity:1;stroke-miterlimit:10;" d="M 132.946125 111.6155 C 132.946125 112.435813 132.278156 113.103781 131.457844 113.103781 C 130.637531 113.103781 129.969562 112.435813 129.969562 111.6155 C 129.969562 110.795188 130.637531 110.127219 131.457844 110.127219 C 132.278156 110.127219 132.946125 110.795188 132.946125 111.6155 Z M 132.946125 111.6155 " transform="matrix(1,0,0,-1,2.382,127.303)"/>
<path style="fill-rule:nonzero;fill:rgb(0%,0%,0%);fill-opacity:1;stroke-width:0.3985;stroke-linecap:butt;stroke-linejoin:miter;stroke:rgb(0%,0%,0%);stroke-opacity:1;stroke-miterlimit:10;" d="M 46.133625 124.017844 C 46.133625 124.838156 45.469563 125.506125 44.645344 125.506125 C 43.825031 125.506125 43.157063 124.838156 43.157063 124.017844 C 43.157063 123.193625 43.825031 122.529563 44.645344 122.529563 C 45.469563 122.529563 46.133625 123.193625 46.133625 124.017844 Z M 46.133625 124.017844 " transform="matrix(1,0,0,-1,2.382,127.303)"/>
<path style="fill-rule:nonzero;fill:rgb(0%,0%,0%);fill-opacity:1;stroke-width:0.3985;stroke-linecap:butt;stroke-linejoin:miter;stroke:rgb(0%,0%,0%);stroke-opacity:1;stroke-miterlimit:10;" d="M 95.739094 124.017844 C 95.739094 124.838156 95.075031 125.506125 94.254719 125.506125 C 93.4305 125.506125 92.766437 124.838156 92.766437 124.017844 C 92.766437 123.193625 93.4305 122.529563 94.254719 122.529563 C 95.075031 122.529563 95.739094 123.193625 95.739094 124.017844 Z M 95.739094 124.017844 " transform="matrix(1,0,0,-1,2.382,127.303)"/>
<path style="fill-rule:nonzero;fill:rgb(0%,0%,0%);fill-opacity:1;stroke-width:0.3985;stroke-linecap:butt;stroke-linejoin:miter;stroke:rgb(0%,0%,0%);stroke-opacity:1;stroke-miterlimit:10;" d="M 145.348469 124.017844 C 145.348469 124.838156 144.6805 125.506125 143.860187 125.506125 C 143.035969 125.506125 142.371906 124.838156 142.371906 124.017844 C 142.371906 123.193625 143.035969 122.529563 143.860187 122.529563 C 144.6805 122.529563 145.348469 123.193625 145.348469 124.017844 Z M 145.348469 124.017844 " transform="matrix(1,0,0,-1,2.382,127.303)"/>
<path style="fill:none;stroke-width:0.3985;stroke-linecap:butt;stroke-linejoin:miter;stroke:rgb(0%,0%,0%);stroke-opacity:1;stroke-miterlimit:10;" d="M 0.0008125 -0.0016875 L 19.840656 99.213156 M 12.403156 12.400656 L 32.243 111.6155 M 24.801594 24.803 L 44.645344 124.017844 " transform="matrix(1,0,0,-1,2.382,127.303)"/>
<path style="fill:none;stroke-width:0.3985;stroke-linecap:butt;stroke-linejoin:miter;stroke:rgb(0%,0%,0%);stroke-opacity:1;stroke-miterlimit:10;" d="M 49.606281 -0.0016875 L 69.450031 99.213156 M 62.008625 12.400656 L 81.852375 111.6155 M 74.410969 24.803 L 94.254719 124.017844 " transform="matrix(1,0,0,-1,2.382,127.303)"/>
<path style="fill:none;stroke-width:0.3985;stroke-linecap:butt;stroke-linejoin:miter;stroke:rgb(0%,0%,0%);stroke-opacity:1;stroke-miterlimit:10;" d="M 99.215656 -0.0016875 L 119.0555 99.213156 M 111.614094 111.6155 L 131.457844 111.6155 M 124.016437 24.803 L 143.860187 124.017844 " transform="matrix(1,0,0,-1,2.382,127.303)"/>
<path style="fill:none;stroke-width:0.3985;stroke-linecap:butt;stroke-linejoin:miter;stroke:rgb(0%,0%,0%);stroke-opacity:1;stroke-miterlimit:10;" d="M 0.0008125 -0.0016875 L 24.801594 24.803 M 49.606281 -0.0016875 L 74.410969 24.803 M 99.215656 -0.0016875 L 124.016437 24.803 " transform="matrix(1,0,0,-1,2.382,127.303)"/>
<path style="fill:none;stroke-width:0.3985;stroke-linecap:butt;stroke-linejoin:miter;stroke:rgb(0%,0%,0%);stroke-opacity:1;stroke-miterlimit:10;" d="M 9.922688 49.607687 L 34.723469 74.408469 M 59.528156 49.607687 L 84.332844 74.408469 M 109.133625 49.607687 L 133.938312 74.408469 " transform="matrix(1,0,0,-1,2.382,127.303)"/>
<path style="fill:none;stroke-width:0.3985;stroke-linecap:butt;stroke-linejoin:miter;stroke:rgb(0%,0%,0%);stroke-opacity:1;stroke-miterlimit:10;" d="M 19.840656 99.213156 L 44.645344 124.017844 M 69.450031 99.213156 L 94.254719 124.017844 M 119.0555 99.213156 L 143.860187 124.017844 " transform="matrix(1,0,0,-1,2.382,127.303)"/>
</g>
</svg>
